<svg width="80" height="80" viewBox="0 0 80 80" fill="none" xmlns="http://www.w3.org/2000/svg">
<rect opacity="0.1" width="80" height="80" rx="25" transform="matrix(-1 0 0 1 80 0)" fill="#F04455"/>
<g clip-path="url(#clip0_549_176)">
<path d="M33.8933 58.0003C33.4867 57.9973 33.0892 57.8804 32.7458 57.6628C32.3119 57.399 31.9864 56.989 31.8282 56.5065C31.67 56.024 31.6894 55.5008 31.8829 55.0314L36.6574 43.0962H31.4711C30.9334 43.0957 30.4039 42.9637 29.9289 42.7115C29.4539 42.4594 29.0478 42.0948 28.7461 41.6496C28.4444 41.2045 28.2563 40.6922 28.1981 40.1576C28.1399 39.623 28.2134 39.0823 28.4122 38.5826L34.2161 24.07C34.4592 23.4578 34.881 22.9328 35.4266 22.5636C35.9722 22.1944 36.6163 21.998 37.275 22H44.861C45.4228 21.9999 45.9754 22.1434 46.4662 22.417C46.957 22.6905 47.3696 23.085 47.665 23.563C47.9604 24.041 48.1286 24.5866 48.1537 25.1479C48.1788 25.7092 48.06 26.2676 47.8085 26.77L43.9103 34.5675H48.5229C49.1601 34.5675 49.7836 34.7521 50.318 35.0991C50.8524 35.4461 51.2748 35.9405 51.5341 36.5226C51.7933 37.1047 51.8783 37.7494 51.7788 38.3788C51.6792 39.0081 51.3994 39.5951 50.9731 40.0688L35.4829 57.2814C35.2834 57.5063 35.0387 57.6865 34.7648 57.8104C34.4909 57.9343 34.1939 57.999 33.8933 58.0003ZM37.275 24.25C37.0659 24.2493 36.8615 24.3116 36.6883 24.4288C36.5151 24.546 36.3812 24.7127 36.3042 24.907L30.5002 39.4196C30.4366 39.5783 30.4128 39.7502 30.431 39.9202C30.4492 40.0902 30.5088 40.2531 30.6047 40.3947C30.7005 40.5363 30.8296 40.6522 30.9807 40.7323C31.1318 40.8124 31.3002 40.8542 31.4711 40.854H38.3191C38.5029 40.854 38.684 40.8989 38.8464 40.985C39.0088 41.0712 39.1477 41.1958 39.2508 41.3479C39.3539 41.5001 39.4182 41.6753 39.438 41.8581C39.4577 42.0408 39.4324 42.2257 39.3642 42.3964L34.17 55.3779L49.3048 38.5635C49.4395 38.4129 49.5279 38.2266 49.5592 38.027C49.5905 37.8273 49.5633 37.6229 49.481 37.4383C49.3987 37.2538 49.2648 37.097 49.0954 36.9868C48.926 36.8766 48.7283 36.8178 48.5262 36.8175H42.089C41.8973 36.8174 41.7088 36.7683 41.5414 36.6749C41.374 36.5815 41.2332 36.4469 41.1325 36.2838C41.0317 36.1207 40.9743 35.9346 40.9657 35.7431C40.9571 35.5516 40.9975 35.3611 41.0832 35.1896L45.7959 25.7632C45.8757 25.6038 45.9134 25.4267 45.9055 25.2486C45.8975 25.0705 45.8442 24.8975 45.7505 24.7458C45.6568 24.5942 45.5259 24.469 45.3702 24.3823C45.2145 24.2955 45.0392 24.25 44.861 24.25H37.275Z" fill="#F04455"/>
</g>
<defs>
<clipPath id="clip0_549_176">
<rect width="36" height="36" fill="white" transform="translate(22 22)"/>
</clipPath>
</defs>
</svg>
