<svg width="80" height="80" viewBox="0 0 80 80" fill="none" xmlns="http://www.w3.org/2000/svg">
<rect opacity="0.1" width="80" height="80" rx="25" fill="#446BF0"/>
<g clip-path="url(#clip0_257_3105)">
<path d="M48.2027 42.1237C46.1272 46.4018 41.732 49.4575 36.6042 49.4575C29.6451 49.4575 23.7848 43.7127 23.7848 36.6233C23.7848 29.6562 29.4009 23.7891 36.6042 23.7891C40.0227 23.7891 43.3191 25.1337 45.7609 27.5783C47.226 29.045 48.2027 30.7563 48.8132 32.5897L51.6212 29.7784C50.7666 27.945 49.6678 26.356 48.2027 24.8892C45.0284 21.8335 40.8773 20 36.4821 20C27.4475 20.1222 20 27.5783 20 36.6233C20 45.7906 27.4475 53.1244 36.4821 53.1244C45.0284 53.1244 51.8654 46.6462 52.8421 38.7012C51.0108 40.4125 50.2782 42.1237 48.2027 42.1237Z" fill="#446BF0"/>
<path d="M58.5801 58.625C56.7488 60.4584 53.6965 60.4584 51.7431 58.625L46.127 53.0024C47.4699 52.1468 48.8129 51.1689 49.9117 50.0688C51.1326 48.8465 52.1093 47.6242 52.964 46.1575L58.5801 51.7801C60.4114 53.6135 60.5335 56.6693 58.5801 58.625Z" fill="#446BF0"/>
<path d="M57.4814 30.7566L55.1617 33.079L48.8131 39.3127C48.3247 39.8017 47.5922 39.8017 47.1038 39.3127L43.0748 35.2791L36.7262 41.6351C36.2378 42.124 35.5053 42.124 35.0169 41.6351L32.2089 38.8238L28.1799 42.8574C27.6915 42.2463 27.2032 41.3907 26.8369 40.6573L31.3542 36.3792C31.8426 35.8903 32.5751 35.8903 33.0635 36.3792L35.8715 39.1905L42.2202 32.8345C42.7086 32.3456 43.4411 32.3456 43.9295 32.8345L46.8596 35.7681L47.9584 36.8681L54.4292 30.3899L55.7722 29.0454C56.2605 28.5565 56.9931 28.5565 57.4814 29.0454C57.9698 29.5343 57.9698 30.2677 57.4814 30.7566Z" fill="#446BF0"/>
</g>
<defs>
<clipPath id="clip0_257_3105">
<rect width="40" height="40" fill="white" transform="translate(20 20)"/>
</clipPath>
</defs>
</svg>
