<svg width="80" height="80" viewBox="0 0 80 80" fill="none" xmlns="http://www.w3.org/2000/svg">
<rect opacity="0.1" width="80" height="80" rx="25" transform="matrix(-1 0 0 1 80 0)" fill="#3CB768"/>
<path d="M34.6626 38.6625C34.3079 38.6625 33.9677 38.5216 33.7168 38.2708C33.466 38.02 33.3251 37.6798 33.3251 37.325V33.325C33.3071 33.1394 33.3281 32.952 33.3868 32.775C33.4455 32.5979 33.5406 32.4351 33.666 32.297C33.7914 32.1588 33.9442 32.0485 34.1148 31.9729C34.2853 31.8974 34.4698 31.8584 34.6563 31.8584C34.8429 31.8584 35.0274 31.8974 35.1979 31.9729C35.3685 32.0485 35.5213 32.1588 35.6467 32.297C35.7721 32.4351 35.8672 32.5979 35.9259 32.775C35.9846 32.952 36.0056 33.1394 35.9876 33.325V37.325C35.9876 37.6776 35.8484 38.0159 35.6003 38.2664C35.3522 38.5169 35.0152 38.6593 34.6626 38.6625Z" fill="#3CB768"/>
<path d="M40.0001 38.6626C39.6454 38.6626 39.3052 38.5217 39.0543 38.2709C38.8035 38.02 38.6626 37.6798 38.6626 37.3251V32.0001C38.6947 31.6693 38.8488 31.3623 39.0949 31.1389C39.341 30.9155 39.6615 30.7917 39.9938 30.7917C40.3262 30.7917 40.6467 30.9155 40.8928 31.1389C41.1389 31.3623 41.293 31.6693 41.3251 32.0001V37.3376C41.3218 37.688 41.1812 38.0231 40.9334 38.2709C40.6856 38.5187 40.3505 38.6593 40.0001 38.6626Z" fill="#3CB768"/>
<path d="M45.3374 38.6625C44.9827 38.6625 44.6425 38.5216 44.3916 38.2708C44.1408 38.0199 43.9999 37.6797 43.9999 37.325V29.3375C43.9819 29.1518 44.0029 28.9645 44.0616 28.7874C44.1203 28.6104 44.2154 28.4475 44.3408 28.3094C44.4662 28.1713 44.619 28.0609 44.7896 27.9854C44.9601 27.9099 45.1446 27.8708 45.3312 27.8708C45.5177 27.8708 45.7022 27.9099 45.8727 27.9854C46.0433 28.0609 46.1961 28.1713 46.3215 28.3094C46.4469 28.4475 46.542 28.6104 46.6007 28.7874C46.6594 28.9645 46.6804 29.1518 46.6624 29.3375V37.3375C46.6591 37.6879 46.5185 38.023 46.2707 38.2708C46.0229 38.5186 45.6878 38.6592 45.3374 38.6625Z" fill="#3CB768"/>
<path d="M50.6625 60H29.3375C27.9219 60 26.5643 59.4377 25.5633 58.4367C24.5624 57.4357 24 56.0781 24 54.6625V30.5C23.9985 29.5218 24.2128 28.5553 24.6276 27.6695C25.0425 26.7836 25.6477 26.0002 26.4 25.375L31 21.55C32.1969 20.5526 33.7045 20.0044 35.2625 20H50.6625C52.0781 20 53.4357 20.5623 54.4367 21.5633C55.4377 22.5643 56 23.9219 56 25.3375V54.6625C56 56.0781 55.4377 57.4357 54.4367 58.4367C53.4357 59.4377 52.0781 60 50.6625 60ZM35.2625 22.6625C34.3481 22.6769 33.4661 23.0033 32.7625 23.5875L28.1 27.425C27.6489 27.8002 27.2862 28.2704 27.0377 28.8019C26.7892 29.3334 26.6611 29.9133 26.6625 30.5V54.6625C26.6658 55.3676 26.9474 56.0429 27.446 56.5415C27.9446 57.0401 28.6199 57.3217 29.325 57.325H50.6625C51.3676 57.3217 52.0429 57.0401 52.5415 56.5415C53.0401 56.0429 53.3217 55.3676 53.325 54.6625V25.3375C53.3217 24.6324 53.0401 23.9571 52.5415 23.4585C52.0429 22.9599 51.3676 22.6783 50.6625 22.675L35.2625 22.6625Z" fill="#3CB768"/>
<path d="M47.9999 52.0001H31.9999C31.8142 52.0181 31.6268 51.997 31.4498 51.9383C31.2727 51.8796 31.1099 51.7845 30.9718 51.6592C30.8336 51.5338 30.7233 51.3809 30.6477 51.2104C30.5722 51.0398 30.5332 50.8553 30.5332 50.6688C30.5332 50.4823 30.5722 50.2978 30.6477 50.1272C30.7233 49.9567 30.8336 49.8038 30.9718 49.6784C31.1099 49.5531 31.2727 49.458 31.4498 49.3993C31.6268 49.3406 31.8142 49.3195 31.9999 49.3375H47.9999C48.1855 49.3195 48.3729 49.3406 48.5499 49.3993C48.727 49.458 48.8898 49.5531 49.0279 49.6784C49.1661 49.8038 49.2764 49.9567 49.352 50.1272C49.4275 50.2978 49.4665 50.4823 49.4665 50.6688C49.4665 50.8553 49.4275 51.0398 49.352 51.2104C49.2764 51.3809 49.1661 51.5338 49.0279 51.6592C48.8898 51.7845 48.727 51.8796 48.5499 51.9383C48.3729 51.997 48.1855 52.0181 47.9999 52.0001Z" fill="#3CB768"/>
<path d="M47.9999 45.3375H31.9999C31.669 45.3054 31.362 45.1512 31.1386 44.9051C30.9153 44.659 30.7915 44.3386 30.7915 44.0062C30.7915 43.6738 30.9153 43.3534 31.1386 43.1073C31.362 42.8612 31.669 42.707 31.9999 42.675H47.9999C48.1855 42.6569 48.3729 42.678 48.5499 42.7367C48.727 42.7954 48.8898 42.8905 49.0279 43.0158C49.1661 43.1412 49.2764 43.2941 49.352 43.4646C49.4275 43.6352 49.4665 43.8197 49.4665 44.0062C49.4665 44.1927 49.4275 44.3772 49.352 44.5478C49.2764 44.7183 49.1661 44.8712 49.0279 44.9966C48.8898 45.1219 48.727 45.217 48.5499 45.2757C48.3729 45.3344 48.1855 45.3555 47.9999 45.3375Z" fill="#3CB768"/>
</svg>
