<svg width="80" height="80" viewBox="0 0 80 80" fill="none" xmlns="http://www.w3.org/2000/svg">
<rect opacity="0.1" width="80" height="80" rx="25" transform="matrix(-1 0 0 1 80 0)" fill="#F08F44"/>
<path d="M50.3569 37.1579C51.5398 37.1579 52.6035 37.8546 53.0428 38.917L59.858 55.4002C60.3727 56.6455 59.4248 58 58.0385 58C57.2375 58 56.517 57.5282 56.2193 56.8088L54.3601 52.3158H46.3498L44.4937 56.8086C44.1964 57.528 43.4762 58 42.6752 58C41.2898 58 40.3424 56.6464 40.8569 55.4019L47.6712 38.9172C48.1103 37.8546 49.1741 37.1579 50.3569 37.1579ZM33.7096 22C34.7912 22 35.6681 22.8483 35.6681 23.8947V25.7895H45.4602C46.5421 25.7895 47.4191 26.6379 47.4191 27.6845C47.4191 28.7309 46.5425 29.5792 45.461 29.5795L43.5652 29.5801C42.0185 34.0622 39.5827 38.1161 36.474 41.5177C37.466 42.3737 38.5155 43.1619 39.6145 43.8766C40.4245 44.4034 40.7817 45.3989 40.4194 46.2756C39.9748 47.3516 38.6481 47.8044 37.6487 47.1655C36.2638 46.2801 34.9473 45.2935 33.7088 44.2156C30.711 46.8258 27.2537 48.9019 23.4774 50.2985C22.4425 50.6812 21.3192 50.0849 21.0224 49.0521C20.739 48.0657 21.3174 47.0458 22.3026 46.6719C25.4771 45.4671 28.3956 43.7127 30.9489 41.5198C29.4293 39.8588 28.0707 38.0416 26.898 36.0946C26.1523 34.8565 27.1214 33.369 28.6026 33.3691C29.3441 33.3691 30.0216 33.7645 30.3996 34.3817C31.3702 35.9665 32.4792 37.4518 33.7089 38.8196C36.1152 36.1444 38.0584 33.0201 39.4078 29.5809L21.9584 29.5791C20.8768 29.579 20 28.7307 20 27.6843C20 26.6378 20.8769 25.7895 21.9586 25.7895H31.751V23.8947C31.751 22.8483 32.6279 22 33.7096 22ZM50.3569 42.6246L47.9146 48.5263H52.7952L50.3569 42.6246Z" fill="#F08F44"/>
</svg>
