<svg width="16" height="16" viewBox="0 0 16 16" fill="none" xmlns="http://www.w3.org/2000/svg">
<path d="M15.3959 6.60902L8.86968 6.6087C8.58149 6.6087 8.3479 6.84227 8.3479 7.13045V9.2153C8.3479 9.50343 8.58149 9.73705 8.86965 9.73705H12.5448C12.1424 10.7815 11.3913 11.6561 10.433 12.2119L12.0001 14.9246C14.5139 13.4708 16.0001 10.9199 16.0001 8.06433C16.0001 7.65774 15.9701 7.36708 15.9102 7.0398C15.8646 6.79114 15.6487 6.60902 15.3959 6.60902Z" fill="#167EE6"/>
<path d="M7.99986 12.8696C6.20129 12.8696 4.63117 11.8869 3.78789 10.4327L1.0752 11.9963C2.45567 14.3888 5.04173 16 7.99986 16C9.45102 16 10.8203 15.6093 11.9999 14.9284V14.9247L10.4328 12.2118C9.71595 12.6276 8.88645 12.8696 7.99986 12.8696Z" fill="#12B347"/>
<path d="M12 14.9284V14.9247L10.4329 12.2119C9.7161 12.6276 8.88666 12.8696 8 12.8696V16C9.45116 16 10.8205 15.6093 12 14.9284Z" fill="#0F993E"/>
<path d="M3.13044 8.00001C3.13044 7.11348 3.37238 6.28407 3.78803 5.56729L1.07534 4.00372C0.390688 5.17957 0 6.54513 0 8.00001C0 9.45489 0.390688 10.8204 1.07534 11.9963L3.78803 10.4327C3.37238 9.71595 3.13044 8.88654 3.13044 8.00001Z" fill="#FFD500"/>
<path d="M7.99986 3.13044C9.1727 3.13044 10.25 3.54719 11.0915 4.24041C11.2991 4.41141 11.6008 4.39907 11.791 4.20891L13.2681 2.73172C13.4839 2.51597 13.4685 2.16281 13.2381 1.96288C11.8282 0.739782 9.99383 0 7.99986 0C5.04173 0 2.45567 1.61116 1.0752 4.00372L3.78789 5.56729C4.63117 4.11313 6.20129 3.13044 7.99986 3.13044Z" fill="#FF4B26"/>
<path d="M11.0916 4.24041C11.2992 4.41141 11.601 4.39907 11.7911 4.20891L13.2683 2.73172C13.484 2.51597 13.4686 2.16281 13.2382 1.96288C11.8283 0.739751 9.99397 0 8 0V3.13044C9.17281 3.13044 10.2502 3.54719 11.0916 4.24041Z" fill="#D93F21"/>
</svg>
